# AST/ASF file generated using VICON BodyLanguage
# -----------------------------------------------
:version 1.10
:name VICON
:units
  mass 1.0
  length 0.45
  angle deg
:documentation
   .ast/.asf automatically generated from VICON data using
   VICON BodyBuilder and BodyLanguage model FoxedUp or BRILLIANT.MOD
:root
   order TX TY TZ RX RY RZ
   axis XYZ
   position 0 0 0  
   orientation 0 0 0 
:bonedata
  begin
     id 1 
     name lhipjoint
     direction 0.64773 -0.699417 0.302095 
     length 2.48597 
     axis 0 0 0  XYZ
  end
  begin
     id 2 
     name lfemur
     direction 0.34202 -0.939693 0  
     length 6.71947  
     axis 0 0 20  XYZ
    dof rx ry rz
    limits (-160.0 20.0)
           (-70.0 70.0)
           (-60.0 70.0)
  end
  begin
     id 3 
     name ltibia
     direction 0.34202 -0.939693 0   
     length 8.08777   
     axis 0 0 20   XYZ
    dof rx
    limits (-10.0 170.0)
  end
  begin
     id 4 
     name lfoot
     direction 0.0808503 -0.222134 0.971658   
     length 2.08264   
     axis -90 7.62852e-016 20   XYZ
    dof rx rz
    limits (-45.0 90.0)
           (-70.0 20.0)
  end
  begin
     id 5 
     name ltoes
     direction 1.53502e-011 -4.22007e-011 1   
     length 1.04662   
     axis -90 7.62852e-016 20   XYZ
    dof rx
    limits (-90.0 20.0)
  end
  begin
     id 6 
     name rhipjoint
     direction -0.610924 -0.726792 0.313919   
     length 2.39233  
     axis 0 0 0  XYZ 
  end
  begin
     id 7 
     name rfemur
     direction -0.34202 -0.939693 0   
     length 6.96955   
     axis 0 0 -20   XYZ
    dof rx ry rz
    limits (-160.0 20.0)
           (-70.0 70.0)
           (-70.0 60.0)
  end
  begin
     id 8 
     name rtibia
     direction -0.34202 -0.939693 0   
     length 8.19584   
     axis 0 0 -20   XYZ
    dof rx
    limits (-10.0 170.0)
 end
 begin
     id 9 
     name rfoot
     direction -0.077777 -0.213691 0.9738   
     length 2.07539  
     axis -90 -7.62852e-016 -20   XYZ
    dof rx rz
    limits (-45.0 90.0)
           (-20.0 70.0)
  end
  begin
     id 10 
     name rtoes
     direction -1.53558e-011 -4.22006e-011 1   
     length 1.04381   
     axis -90 -7.62852e-016 -20   XYZ
    dof rx
    limits (-90.0 20.0)
  end
  begin
     id 11 
     name lowerback
     direction -0.00971646 0.996074 0.0879841   
     length 1.67643   
     axis 0 0 0   XYZ
    dof rx ry rz
    limits (-20.0 45.0)
           (-30.0 30.0)
           (-30.0 30.0)
  end
  begin
     id 12 
     name upperback
     direction 0.0127391 0.991676 0.128127   
     length 1.63741   
     axis 0 0 0   XYZ
    dof rx ry rz
    limits (-20.0 45.0)
           (-30.0 30.0)
           (-30.0 30.0)
  end
  begin
     id 13 
     name thorax
     direction 0.0167583 0.996049 0.0872067   
     length 1.65931   
     axis 0 0 0   XYZ
    dof rx ry rz
    limits (-20.0 45.0)
           (-30.0 30.0)
           (-30.0 30.0)
  end
  begin
     id 14 
     name lowerneck
     direction -0.0317829 0.998312 0.0486079   
     length 1.79021   
     axis 0 0 0   XYZ
    dof rx ry rz
    limits (-20.0 45.0)
           (-30.0 30.0)
           (-30.0 30.0)
  end
  begin
     id 15 
     name upperneck
     direction 0.0896851 0.972452 -0.215159   
     length 1.78797   
     axis 0 0 0   XYZ
    dof rx ry rz
    limits (-20.0 45.0)
           (-30.0 30.0)
           (-30.0 30.0)
  end
  begin
     id 16
     name head
     direction 0.0310949 0.996503 -0.0775582  
     length 1.81549  
     axis 0 0 0   XYZ
    dof rx ry rz
    limits (-20.0 45.0)
           (-30.0 30.0)
           (-30.0 30.0)
  end
  begin
     id 17 
     name lclavicle
     direction 0.853638 0.502051 -0.138733  
     length 3.31627  
     axis 0 0 0   XYZ
    dof ry rz
    limits (-20.0 10.0)
           (0.0 20.0)
  end
  begin
     id 18 
     name lhumerus
     direction 1 -4.48962e-011 -1.41788e-018   
     length 5.54893   
     axis 180 -30 -90   XYZ
    dof rx ry rz
    limits (-60.0 90.0)
           (-90.0 90.0)
           (-90.0 90.0)
  end
  begin
     id 19
     name lradius
     direction 1 -4.48962e-011 -4.95754e-027   
     length 3.02898   
     axis 180 -30 -90   XYZ
    dof rx
    limits (-10.0 170.0)
  end
  begin
     id 20
     name lwrist
     direction 1 -4.48952e-011 -1.03764e-026   
     length 1.51449   
     axis 9.09556e-015 90 90   XYZ
    dof ry
    limits (-180.0 0.0)
 end
  begin
     id 21 
     name lhand
     direction 1 -4.4902e-011 -2.07528e-026   
     length 0.640951   
     axis 1.3242e-014 90 90   XYZ
    dof rx rz
    limits (-90.0 90.0)
           (-45.0 45.0)
  end
  begin
     id 22 
     name lfingers
     direction 1 -4.49014e-011 -4.15056e-026   
     length 0.516751   
     axis 2.64841e-014 90 90   XYZ
    dof rx
    limits (0.0 90.0)
  end
  begin
     id 23
     name lthumb
     direction 0.707107 -6.35008e-011 0.707107   
     length 0.741954   
     axis -90 45 2.85299e-015   XYZ
    dof rx rz
    limits (-45.0 45.0)
           (-45.0 45.0)
  end
  begin
     id 24 
     name rclavicle
     direction -0.888531 0.455324 -0.0565039   
     length 3.20126  
     axis 0 0 0   XYZ 
    dof ry rz
    limits (-10.0 20.0)
           (-20.0 0.0)
  end
  begin
     id 25 
     name rhumerus
     direction -1 -4.48946e-011 -8.98298e-028  
     length 5.3519   
     axis 180 30 90   XYZ
    dof rx ry rz
    limits (-90.0 60.0)
           (-90.0 90.0)
           (-90.0 90.0)
  end
  begin
     id 26 
     name rradius
     direction -1 -4.4899e-011 -3.18779e-027   
     length 3.02531   
     axis 180 30 90   XYZ
    dof rx
    limits (-10.0 170.0)
  end
  begin
     id 27 
     name rwrist
     direction -1 -4.4897e-011 -1.03764e-026   
     length 1.51266   
     axis 9.09556e-015 -90 -90   XYZ
    dof ry
    limits (-180.0 0.0)
  end
  begin
     id 28
     name rhand
     direction -1 -4.48941e-011 -2.07528e-026   
     length 0.78389   
     axis 1.3242e-014 -90 -90   XYZ
    dof rx rz
    limits (-90.0 90.0)
           (-45.0 45.0)
  end
  begin
     id 29
     name rfingers
     direction -1 -4.49012e-011 -4.15056e-026   
     length 0.631992   
     axis 2.64841e-014 -90 -90   XYZ
    dof rx
    limits (0.0 90.0)
  end
  begin
     id 30
     name rthumb
     direction -0.707107 -6.3496e-011 0.707107   
     length 0.907418   
     axis -90 -45 -2.85299e-015   XYZ
    dof rx rz
    limits (-45.0 45.0)
           (-45.0 45.0)
  end
:hierarchy
  begin
    root lhipjoint rhipjoint lowerback
    lhipjoint lfemur
    lfemur ltibia
    ltibia lfoot
    lfoot ltoes
    rhipjoint rfemur
    rfemur rtibia
    rtibia rfoot
    rfoot rtoes
    lowerback upperback
    upperback thorax
    thorax lowerneck lclavicle rclavicle
    lowerneck upperneck
    upperneck head
    lclavicle lhumerus
    lhumerus lradius
    lradius lwrist
    lwrist lhand lthumb
    lhand lfingers
    rclavicle rhumerus
    rhumerus rradius
    rradius rwrist
    rwrist rhand rthumb
    rhand rfingers
  end

#!OML:ASF E:\Style3\Style3.ASF
:FULLY-SPECIFIED
:DEGREES
1591
root 0.3118 17.8125 1.05841 -315.46 87.8466 26.5433
lowerback -7.93836 -3.07682 5.1989
upperback -10.2007 -3.6232 3.66838
thorax -6.38326 -1.80255 0.855948
lowerneck -12.0314 2.22991 -2.97286
upperneck 14.9077 2.93828 4.38038
head 6.39553 1.64859 2.154
rclavicle 0 4.77083e-015
rhumerus -29.9277 62.2151 -46.836
rradius 111.764
rwrist -34.6912
rhand -0.610103 21.105
rfingers 7.12502
rthumb 25.0059 -7.27841
lclavicle 0 4.77083e-015
lhumerus -17.1685 36.5828 28.7712
lradius 12.8428
lwrist -85.6905
lhand -7.50194 15.4438
lfingers 7.12502
lthumb 18.388 44.5947
rfemur -19.322 12.9364 16.0903
rtibia 18.7005
rfoot -16.3028 -19.8192
rtoes -16.766
lfemur -8.71669 -20.896 -13.0489
ltibia -1.11319e-014
lfoot -12.7903 26.096
ltoes -8.73551
1592
root 0.299295 17.8139 1.06152 -311.11 87.9727 31.023
lowerback -7.77246 -3.27527 5.12301
upperback -10.0768 -3.89917 3.62282
thorax -6.34371 -1.94252 0.849567
lowerneck -12.0169 2.36824 -3.00233
upperneck 14.5946 3.10759 4.5353
head 6.28326 1.73966 2.21606
rclavicle 4.39314e-014 -2.06736e-014
rhumerus -34.8511 63.3732 -52.0405
rradius 111.593
rwrist -33.127
rhand 0.626604 21.3315
rfingers 7.12502
rthumb 26.1904 -6.88163
lclavicle 4.39314e-014 -2.06736e-014
lhumerus -17.7585 37.5051 29.8348
lradius 12.6335
lwrist -88.4864
lhand -8.39331 15.0329
lfingers 7.12502
lthumb 17.5304 44.2625
rfemur -19.1718 12.8921 16.0949
rtibia 18.6837
rfoot -16.2915 -19.9658
rtoes -16.5975
lfemur -8.66507 -21.1095 -13.0752
ltibia -1.27222e-014
lfoot -12.6133 26.1317
ltoes -8.9236
1593
root 0.286817 17.8151 1.06201 -308.219 88.0504 33.9684
lowerback -7.64931 -3.41656 5.12697
upperback -9.97439 -4.10217 3.5402
thorax -6.3119 -2.05203 0.761033
lowerneck -12.0945 2.49975 -2.91717
upperneck 14.4121 3.25495 4.64407
head 6.23205 1.82377 2.24689
rclavicle 1.47101e-014 9.54166e-015
rhumerus -40.285 64.135 -57.766
rradius 111.363
rwrist -31.5516
rhand 1.52965 21.2654
rfingers 7.12502
rthumb 27.0547 -6.81653
lclavicle 1.47101e-014 9.54166e-015
lhumerus -18.2836 38.5361 30.9513
lradius 12.5195
lwrist -91.4292
lhand -9.06575 14.8122
lfingers 7.12502
lthumb 16.8831 44.0983
rfemur -19.1012 12.7499 16.1156
rtibia 18.6477
rfoot -16.1606 -20.0447
rtoes -16.9132
lfemur -8.6753 -21.2405 -13.0761
ltibia 1.59028e-015
lfoot -12.5593 26.1489
ltoes -9.4404
1594
root 0.274248 17.8164 1.0649 -312.298 88.1547 29.8554
lowerback -7.55095 -3.49537 5.26966
upperback -9.91133 -4.2154 3.53697
thorax -6.31477 -2.12043 0.681786
lowerneck -12.2671 2.6177 -2.88538
upperneck 14.3795 3.39151 4.76997
head 6.24387 1.9025 2.29603
rclavicle -3.89618e-014 3.33958e-014
rhumerus -45.9206 64.529 -63.6265
rradius 111.134
rwrist -30.2758
rhand 2.55175 21.1119
rfingers 7.12502
rthumb 28.0321 -6.81419
lclavicle -3.89618e-014 3.33958e-014
lhumerus -18.4365 37.6251 32.7367
lradius 12.4327
lwrist -92.4353
lhand -9.25101 14.9153
lfingers 7.12502
lthumb 16.7048 44.2165
rfemur -19.1787 12.8648 16.2807
rtibia 18.6322
rfoot -16.1229 -20.0652
rtoes -16.7152
lfemur -8.75454 -21.1884 -12.837
ltibia -4.77083e-015
lfoot -12.7484 26.1033
ltoes -9.17473
1595
root 0.263549 17.817 1.06908 -316.355 88.2364 25.816
lowerback -7.44652 -3.61939 5.32127
upperback -9.85353 -4.38297 3.58464
thorax -6.3165 -2.20773 0.705781
lowerneck -12.3661 2.74038 -2.8938
upperneck 14.3614 3.54595 4.86472
head 6.24652 1.98491 2.3422
rclavicle -3.34952e-014 -1.59028e-014
rhumerus -51.4402 64.5959 -69.2821
rradius 110.929
rwrist -29.3111
rhand 3.97031 20.9466
rfingers 7.12502
rthumb 29.3874 -6.7499
lclavicle -3.34952e-014 -1.59028e-014
lhumerus -18.3881 34.6603 35.1004
lradius 12.3563
lwrist -91.379
lhand -9.17261 15.1183
lfingers 7.12502
lthumb 16.7803 44.4131
rfemur -19.1992 12.8318 16.4666
rtibia 18.6247
rfoot -16.0704 -19.9956
rtoes -16.6519
lfemur -8.76746 -21.1467 -12.6459
ltibia 2.22639e-014
lfoot -12.673 26.0636
ltoes -9.08448
1596
root 0.257425 17.8175 1.07184 -313.601 88.2507 28.6689
lowerback -7.42309 -3.78174 5.16847
upperback -9.71646 -4.61641 3.56608
thorax -6.1727 -2.31816 0.761004
lowerneck -12.4174 2.8812 -2.8666
upperneck 14.201 3.72411 4.92615
head 6.19609 2.07681 2.36974
rclavicle -5.36719e-015 -4.77083e-015
rhumerus -56.4812 64.2761 -74.4451
rradius 110.645
rwrist -28.4286
rhand 5.52141 20.8357
rfingers 7.12502
rthumb 30.8672 -6.59105
lclavicle -5.36719e-015 -4.77083e-015
lhumerus -18.2865 31.5267 37.6282
lradius 12.3507
lwrist -90.1673
lhand -8.9879 15.0038
lfingers 7.12502
lthumb 16.9581 44.2835
rfemur -19.0868 12.8263 16.4261
rtibia 18.6174
rfoot -16.0483 -20.0546
rtoes -16.7793
lfemur -8.68169 -21.2313 -12.7339
ltibia -1.27222e-014
lfoot -12.3146 26.1202
ltoes -9.98396
